<svg xmlns="http://www.w3.org/2000/svg" width="700" height="630" viewBox="0 0 700 630">
  <metadata><?xpacket begin="﻿" id="W5M0MpCehiHzreSzNTczkc9d"?>
<x:xmpmeta xmlns:x="adobe:ns:meta/" x:xmptk="Adobe XMP Core 5.6-c142 79.160924, 2017/07/13-01:06:39        ">
   <rdf:RDF xmlns:rdf="http://www.w3.org/1999/02/22-rdf-syntax-ns#">
      <rdf:Description rdf:about=""/>
   </rdf:RDF>
</x:xmpmeta>
                                                                                                    
                                                                                                    
                                                                                                    
                                                                                                    
                                                                                                    
                                                                                                    
                                                                                                    
                                                                                                    
                                                                                                    
                                                                                                    
                                                                                                    
                                                                                                    
                                                                                                    
                                                                                                    
                                                                                                    
                                                                                                    
                                                                                                    
                                                                                                    
                                                                                                    
                                                                                                    
                           
<?xpacket end="w"?></metadata>
<defs>
    <style>
      .cls-1 {
        fill: #4ce600;
        fill-rule: evenodd;
      }
    </style>
  </defs>
  <path id="Rettangolo_1" data-name="Rettangolo 1" class="cls-1" d="M52,713h70v70H52V713Zm0-70h70v70H52V643Zm0-70h70v70H52V573Zm70,140h70v70H122V713Zm0-70h70v70H122V643Zm0-70h70v70H122V573ZM612,713h70v70H612V713Zm0-70h70v70H612V643Zm0-70h70v70H612V573Zm70,140h70v70H682V713Zm0-70h70v70H682V643Zm0-70h70v70H682V573ZM52,503h70v70H52V503Zm0-70h70v70H52V433Zm70,70h70v70H122V503Zm70,0h70v70H192V503Zm70-70h70v70H262V433Zm350,0h70v70H612V433Zm70,0h70v70H682V433ZM262,363h70v70H262V363ZM52,363h70v70H52V363Zm70,0h70v70H122V363Zm70,0h70v70H192V363Zm70-140h70v70H262V223Zm-140,0h70v70H122V223Zm70,0h70v70H192V223Zm140,0h70v70H332V223ZM192,153h70v70H192V153Zm70,0h70v70H262V153Zm140,0h70v70H402V153Zm70,0h70v70H472V153Zm70,0h70v70H542V153ZM332,363h70v70H332V363Zm70,0h70v70H402V363Zm0-140h70v70H402V223Zm-70-70h70v70H332V153ZM682,363h70v70H682V363Zm-210,0h70v70H472V363Zm70,0h70v70H542V363Zm70,0h70v70H612V363ZM262,293h70v70H262V293ZM52,293h70v70H52V293Zm70,0h70v70H122V293Zm70,0h70v70H192V293Zm140,0h70v70H332V293Zm70,0h70v70H402V293Zm280,0h70v70H682V293Zm-210,0h70v70H472V293Zm70,0h70v70H542V293Zm70,0h70v70H612V293ZM472,223h70v70H472V223Zm70,0h70v70H542V223Zm70,0h70v70H612V223ZM472,433h70v70H472V433Zm70,0h70v70H542V433Zm0,70h70v70H542V503ZM122,433h70v70H122V433Zm70,0h70v70H192V433Zm420,70h70v70H612V503Zm70,0h70v70H682V503Z" transform="translate(-52 -153)"/>
</svg>
