<svg xmlns="http://www.w3.org/2000/svg" width="770" height="560" viewBox="0 0 770 560">
  <metadata><?xpacket begin="﻿" id="W5M0MpCehiHzreSzNTczkc9d"?>
<x:xmpmeta xmlns:x="adobe:ns:meta/" x:xmptk="Adobe XMP Core 5.6-c142 79.160924, 2017/07/13-01:06:39        ">
   <rdf:RDF xmlns:rdf="http://www.w3.org/1999/02/22-rdf-syntax-ns#">
      <rdf:Description rdf:about=""/>
   </rdf:RDF>
</x:xmpmeta>
                                                                                                    
                                                                                                    
                                                                                                    
                                                                                                    
                                                                                                    
                                                                                                    
                                                                                                    
                                                                                                    
                                                                                                    
                                                                                                    
                                                                                                    
                                                                                                    
                                                                                                    
                                                                                                    
                                                                                                    
                                                                                                    
                                                                                                    
                                                                                                    
                                                                                                    
                                                                                                    
                           
<?xpacket end="w"?></metadata>
<defs>
    <style>
      .cls-1 {
        fill: #fff;
        fill-rule: evenodd;
      }
    </style>
  </defs>
  <path id="Rettangolo_1" data-name="Rettangolo 1" class="cls-1" d="M301,217h70v70H301V217Zm70,0h70v70H371V217Zm70,0h70v70H441V217Zm0,70h70v70H441V287Zm70,0h70v70H511V287Zm70,0h70v70H581V287Zm70,0h70v70H651V287Zm70,140h70v70H721V427Zm0,70h70v70H721V497Zm-70,0h70v70H651V497Zm-70,0h70v70H581V497ZM721,357h70v70H721V357ZM301,287h70v70H301V287Zm-70,0h70v70H231V287Zm-70,0h70v70H161V287Zm-70,0h70v70H91V287Zm0,70h70v70H91V357Zm-70,0H91v70H21V357Zm0,70H91v70H21V427Zm0,70H91v70H21V497Zm70,0h70v70H91V497Zm70,0h70v70H161V497Zm70,0h70v70H231V497Zm70,0h70v70H301V497Zm70,0h70v70H371V497Zm70,0h70v70H441V497Zm70,0h70v70H511V497ZM371,287h70v70H371V287ZM161,357h70v70H161V357Zm210,0h70v70H371V357Zm70,70h70v70H441V427Zm70,0h70v70H511V427Zm70,0h70v70H581V427Zm70,0h70v70H651V427Zm-70-70h70v70H581V357Zm70,0h70v70H651V357ZM91,427h70v70H91V427Zm70,0h70v70H161V427Zm70,0h70v70H231V427Zm70,0h70v70H301V427Zm70,0h70v70H371V427ZM301,567h70v70H301V567Zm-70,0h70v70H231V567Zm0,70h70v70H231V637Zm-70,0h70v70H161V637Zm280-70h70v70H441V567Zm70,0h70v70H511V567Zm0,70h70v70H511V637Zm70,0h70v70H581V637Zm70,70h70v70H651V707Zm70,0h70v70H721V707ZM371,637h70v70H371V637ZM91,707h70v70H91V707Zm-70,0H91v70H21V707Z" transform="translate(-21 -217)"/>
</svg>
