<svg xmlns="http://www.w3.org/2000/svg" width="770" height="560" viewBox="0 0 770 560">
  <metadata><?xpacket begin="﻿" id="W5M0MpCehiHzreSzNTczkc9d"?>
<x:xmpmeta xmlns:x="adobe:ns:meta/" x:xmptk="Adobe XMP Core 5.6-c142 79.160924, 2017/07/13-01:06:39        ">
   <rdf:RDF xmlns:rdf="http://www.w3.org/1999/02/22-rdf-syntax-ns#">
      <rdf:Description rdf:about=""/>
   </rdf:RDF>
</x:xmpmeta>
                                                                                                    
                                                                                                    
                                                                                                    
                                                                                                    
                                                                                                    
                                                                                                    
                                                                                                    
                                                                                                    
                                                                                                    
                                                                                                    
                                                                                                    
                                                                                                    
                                                                                                    
                                                                                                    
                                                                                                    
                                                                                                    
                                                                                                    
                                                                                                    
                                                                                                    
                                                                                                    
                           
<?xpacket end="w"?></metadata>
<defs>
    <style>
      .cls-1 {
        fill: #fff;
        fill-rule: evenodd;
      }
    </style>
  </defs>
  <path id="Rettangolo_1" data-name="Rettangolo 1" class="cls-1" d="M15,540H85v70H15V540Zm0-70H85v70H15V470Zm0-70H85v70H15V400Zm70,0h70v70H85V400Zm0-70h70v70H85V330Zm70,0h70v70H155V330Zm0,70h70v70H155V400Zm0-140h70v70H155V260Zm0,210h70v70H155V470Zm0,70h70v70H155V540Zm70-280h70v70H225V260Zm70,0h70v70H295V260Zm70,0h70v70H365V260Zm70,0h70v70H435V260Zm70,0h70v70H505V260Zm70,0h70v70H575V260Zm0,70h70v70H575V330Zm0,70h70v70H575V400Zm0,70h70v70H575V470Zm0,70h70v70H575V540Zm70-210h70v70H645V330Zm0,70h70v70H645V400ZM505,610h70v70H505V610Zm-70,0h70v70H435V610Zm-210,0h70v70H225V610Zm70,0h70v70H295V610ZM715,400h70v70H715V400Zm0,70h70v70H715V470Zm0,70h70v70H715V540ZM225,190h70v70H225V190Zm280,0h70v70H505V190ZM295,330h70v70H295V330Zm70,0h70v70H365V330Zm70,0h70v70H435V330ZM225,400h70v70H225V400Zm70,0h70v70H295V400Zm70,0h70v70H365V400Zm70,0h70v70H435V400Zm70,0h70v70H505V400ZM225,470h70v70H225V470Zm70,0h70v70H295V470Zm70,0h70v70H365V470Zm70,0h70v70H435V470Zm70,0h70v70H505V470ZM155,120h70v70H155V120Zm420,0h70v70H575V120Z" transform="translate(-15 -120)"/>
</svg>
