<svg xmlns="http://www.w3.org/2000/svg" width="630" height="630" viewBox="0 0 630 630">
  <metadata><?xpacket begin="﻿" id="W5M0MpCehiHzreSzNTczkc9d"?>
<x:xmpmeta xmlns:x="adobe:ns:meta/" x:xmptk="Adobe XMP Core 5.6-c142 79.160924, 2017/07/13-01:06:39        ">
   <rdf:RDF xmlns:rdf="http://www.w3.org/1999/02/22-rdf-syntax-ns#">
      <rdf:Description rdf:about=""/>
   </rdf:RDF>
</x:xmpmeta>
                                                                                                    
                                                                                                    
                                                                                                    
                                                                                                    
                                                                                                    
                                                                                                    
                                                                                                    
                                                                                                    
                                                                                                    
                                                                                                    
                                                                                                    
                                                                                                    
                                                                                                    
                                                                                                    
                                                                                                    
                                                                                                    
                                                                                                    
                                                                                                    
                                                                                                    
                                                                                                    
                           
<?xpacket end="w"?></metadata>
<defs>
    <style>
      .cls-1 {
        fill: #fff;
        fill-rule: evenodd;
      }
    </style>
  </defs>
  <path id="Rettangolo_1" data-name="Rettangolo 1" class="cls-1" d="M295,92h70v70H295V92Zm70,280h70v70H365V372Zm-70-70h70v70H295V302ZM365,92h70v70H365V92Zm70,0h70v70H435V92ZM295,162h70v70H295V162Zm140,0h70v70H435V162Zm70,0h70v70H505V162Zm-280,0h70v70H225V162Zm0,70h70v70H225V232Zm-70,0h70v70H155V232Zm0,70h70v70H155V302Zm-70,0h70v70H85V302Zm0,70h70v70H85V372Zm0,70h70v70H85V442ZM505,232h70v70H505V232Zm70,0h70v70H575V232Zm0,70h70v70H575V302Zm70,0h70v70H645V302Zm0,70h70v70H645V372ZM155,442h70v70H155V442Zm70,0h70v70H225V442Zm70,0h70v70H295V442Zm70,0h70v70H365V442ZM225,512h70v70H225V512Zm280,0h70v70H505V512ZM295,582h70v70H295V582Zm70,0h70v70H365V582Zm70,0h70v70H435V582Zm140,0h70v70H575V582Zm-420,0h70v70H155V582ZM85,652h70v70H85V652Zm560,0h70v70H645V652Zm-420,0h70v70H225V652Zm280,0h70v70H505V652ZM435,442h70v70H435V442Zm70,0h70v70H505V442Zm70,0h70v70H575V442ZM155,372h70v70H155V372Zm70,0h70v70H225V372Zm70,0h70v70H295V372Zm70-70h70v70H365V302Zm70,0h70v70H435V302ZM365,162h70v70H365V162Zm70,210h70v70H435V372Zm70,0h70v70H505V372ZM295,232h70v70H295V232Zm70,0h70v70H365V232Zm70,0h70v70H435V232ZM575,372h70v70H575V372Zm70,70h70v70H645V442Z" transform="translate(-85 -92)"/>
</svg>
