<svg xmlns="http://www.w3.org/2000/svg" width="700" height="490" viewBox="0 0 700 490">
  <metadata><?xpacket begin="﻿" id="W5M0MpCehiHzreSzNTczkc9d"?>
<x:xmpmeta xmlns:x="adobe:ns:meta/" x:xmptk="Adobe XMP Core 5.6-c142 79.160924, 2017/07/13-01:06:39        ">
   <rdf:RDF xmlns:rdf="http://www.w3.org/1999/02/22-rdf-syntax-ns#">
      <rdf:Description rdf:about=""/>
   </rdf:RDF>
</x:xmpmeta>
                                                                                                    
                                                                                                    
                                                                                                    
                                                                                                    
                                                                                                    
                                                                                                    
                                                                                                    
                                                                                                    
                                                                                                    
                                                                                                    
                                                                                                    
                                                                                                    
                                                                                                    
                                                                                                    
                                                                                                    
                                                                                                    
                                                                                                    
                                                                                                    
                                                                                                    
                                                                                                    
                           
<?xpacket end="w"?></metadata>
<defs>
    <style>
      .cls-1 {
        fill: #4ce600;
        fill-rule: evenodd;
      }
    </style>
  </defs>
  <path id="Rettangolo_1" data-name="Rettangolo 1" class="cls-1" d="M157,313h70v70H157V313Zm70,0h70v70H227V313Zm140,0h70v70H367V313Zm70,0h70v70H437V313Zm70,0h70v70H507V313ZM157,383h70v70H157V383ZM87,313h70v70H87V313Zm0,70h70v70H87V383Zm140,0h70v70H227V383Zm140,0h70v70H367V383Zm-70-70h70v70H297V313Zm140,70h70v70H437V383Zm70,0h70v70H507V383ZM262,173h70v70H262V173Zm70,0h70v70H332V173Zm70,0h70v70H402V173Zm-70-70h70v70H332V103Zm70,140h70v70H402V243Zm-140,0h70v70H262V243Zm70,0h70v70H332V243Zm245,70h70v70H577V313Zm0,70h70v70H577V383ZM157,453h70v70H157V453Zm-70,0h70v70H87V453ZM17,383H87v70H17V383Zm0,70H87v70H17V453Zm630-70h70v70H647V383Zm0,70h70v70H647V453Zm-420,0h70v70H227V453Zm70,0h70v70H297V453Zm70,0h70v70H367V453Zm70,0h70v70H437V453Zm70,0h70v70H507V453Zm70,0h70v70H577V453ZM157,523h70v70H157V523Zm-70,0h70v70H87V523Zm-70,0H87v70H17V523Zm630,0h70v70H647V523ZM297,383h70v70H297V383ZM227,523h70v70H227V523Zm70,0h70v70H297V523Zm70,0h70v70H367V523Zm70,0h70v70H437V523Zm70,0h70v70H507V523Zm70,0h70v70H577V523Z" transform="translate(-17 -103)"/>
</svg>
