<?xml version="1.0" encoding="UTF-8"?>
<svg xmlns="http://www.w3.org/2000/svg" xmlns:xlink="http://www.w3.org/1999/xlink" width="805pt" height="346pt" viewBox="0 0 805 346" version="1.1">
<g id="surface1">
<path style=" stroke:none;fill-rule:evenodd;fill:rgb(0%,37.599182%,21.199036%);fill-opacity:1;" d="M 41.921875 184.414063 L 119.859375 296.273438 L 150.972656 296.273438 L 78.214844 184.367188 L 41.921875 184.414063 "/>
<path style=" stroke:none;fill-rule:evenodd;fill:rgb(0%,37.599182%,21.199036%);fill-opacity:1;" d="M 91.679688 184.289063 L 159.164063 296.273438 L 189.972656 296.273438 L 167.234375 253.242188 L 207.085938 296.03125 L 229.09375 296.03125 L 180.191406 184.535156 L 142.535156 184.289063 L 166.5 234.664063 L 122.488281 184.289063 L 91.679688 184.289063 "/>
<path style=" stroke:none;fill-rule:evenodd;fill:rgb(0%,37.599182%,21.199036%);fill-opacity:1;" d="M 187.523438 184.535156 L 249.875 296.03125 L 301.46875 296.03125 L 291.199219 184.289063 L 249.875 184.289063 L 266.015625 266.691406 L 225.425781 184.535156 L 187.523438 184.535156 "/>
<path style=" stroke:none;fill-rule:evenodd;fill:rgb(0%,37.599182%,21.199036%);fill-opacity:1;" d="M 362.613281 296.03125 L 389.738281 296.03125 L 367 184.289063 L 310.761719 184.535156 L 315.164063 296.03125 L 344.824219 296.03125 L 344.621094 280.34375 L 358.382813 280.34375 Z M 344.4375 265.894531 L 343.933594 226.714844 L 354.488281 265.894531 Z M 344.4375 265.894531 "/>
<path style=" stroke:none;fill-rule:evenodd;fill:rgb(0%,37.599182%,21.199036%);fill-opacity:1;" d="M 459.664063 184.535156 L 395.117188 184.535156 L 397.074219 296.03125 L 451.84375 296.03125 L 468.957031 286.011719 L 481.183594 210.699219 L 481.183594 203.847656 Z M 437.46875 283.765625 L 425.714844 283.765625 L 429.390625 205.167969 L 442.613281 205.167969 L 437.46875 283.765625 "/>
<path style=" stroke:none;fill-rule:evenodd;fill:rgb(0%,37.599182%,21.199036%);fill-opacity:1;" d="M 570.679688 206.054688 L 577.765625 184.535156 L 497.5625 184.535156 L 474.824219 296.03125 L 542.558594 296.03125 L 546.71875 282.832031 L 512.726563 282.832031 L 520.246094 251.140625 L 551.355469 251.777344 L 557.960938 233.683594 L 524.386719 233.683594 L 531.0625 205.5625 L 570.679688 206.054688 "/>
<path style=" stroke:none;fill-rule:evenodd;fill:rgb(0%,37.599182%,21.199036%);fill-opacity:1;" d="M 656.746094 184.535156 L 589.019531 184.289063 L 547.445313 296.523438 L 578.765625 296.421875 L 595.089844 259.039063 L 606.457031 259.039063 L 589.796875 296.375 L 620.796875 296.273438 L 640.113281 260.335938 L 629.113281 248.84375 L 649.40625 239.796875 L 669.210938 205.808594 L 669.210938 201.890625 Z M 614.519531 240.980469 L 602.972656 240.980469 L 618.410156 205.609375 L 630.296875 205.609375 L 614.519531 240.980469 "/>
<path style=" stroke:none;fill-rule:evenodd;fill:rgb(0%,37.599182%,21.199036%);fill-opacity:1;" d="M 756.992188 184.289063 L 712 184.289063 L 682.171875 201.40625 L 659.679688 238.082031 L 659.679688 246.890625 L 668.71875 259.117188 L 692.199219 259.117188 L 676.304688 281.121094 L 670.433594 281.121094 L 677.039063 272.3125 L 677.039063 267.425781 L 645.742188 267.425781 L 635.964844 282.339844 L 635.964844 288.207031 L 642.804688 296.03125 L 681.925781 296.523438 L 705.160156 284.050781 L 727.40625 255.6875 L 727.40625 250.066406 L 720.066406 239.550781 L 695.867188 239.550781 L 715.671875 205.808594 L 725.941406 205.5625 L 711.027344 230.015625 L 746.234375 230.015625 L 764.082031 205.320313 L 764.082031 198.71875 L 756.992188 184.289063 "/>
<path style=" stroke:none;fill-rule:evenodd;fill:rgb(23.098755%,43.499756%,50.19989%);fill-opacity:1;" d="M 41.921875 184.414063 L 119.859375 296.273438 L 150.972656 296.273438 L 78.214844 184.367188 L 41.921875 184.414063 "/>
<path style="fill:none;stroke-width:20.8555;stroke-linecap:butt;stroke-linejoin:miter;stroke:rgb(13.699341%,12.199402%,12.5%);stroke-opacity:1;stroke-miterlimit:4;" d="M 419.21875 1615.859375 L 1198.59375 497.265625 L 1509.726563 497.265625 L 782.148438 1616.328125 Z M 419.21875 1615.859375 " transform="matrix(0.1,0,0,-0.1,0,346)"/>
<path style=" stroke:none;fill-rule:evenodd;fill:rgb(23.098755%,43.499756%,50.19989%);fill-opacity:1;" d="M 91.679688 184.289063 L 159.164063 296.273438 L 189.972656 296.273438 L 167.234375 253.242188 L 207.085938 296.03125 L 229.09375 296.03125 L 180.191406 184.535156 L 142.535156 184.289063 L 166.5 234.664063 L 122.488281 184.289063 L 91.679688 184.289063 "/>
<path style="fill:none;stroke-width:20.8555;stroke-linecap:butt;stroke-linejoin:miter;stroke:rgb(13.699341%,12.199402%,12.5%);stroke-opacity:1;stroke-miterlimit:4;" d="M 916.796875 1617.109375 L 1591.640625 497.265625 L 1899.726563 497.265625 L 1672.34375 927.578125 L 2070.859375 499.6875 L 2290.9375 499.6875 L 1801.914063 1614.648438 L 1425.351563 1617.109375 L 1665 1113.359375 L 1224.882813 1617.109375 Z M 916.796875 1617.109375 " transform="matrix(0.1,0,0,-0.1,0,346)"/>
<path style=" stroke:none;fill-rule:evenodd;fill:rgb(23.098755%,43.499756%,50.19989%);fill-opacity:1;" d="M 187.523438 184.535156 L 249.875 296.03125 L 301.46875 296.03125 L 291.199219 184.289063 L 249.875 184.289063 L 266.015625 266.691406 L 225.425781 184.535156 L 187.523438 184.535156 "/>
<path style="fill:none;stroke-width:20.8555;stroke-linecap:butt;stroke-linejoin:miter;stroke:rgb(13.699341%,12.199402%,12.5%);stroke-opacity:1;stroke-miterlimit:4;" d="M 1875.234375 1614.648438 L 2498.75 499.6875 L 3014.6875 499.6875 L 2911.992188 1617.109375 L 2498.75 1617.109375 L 2660.15625 793.085938 L 2254.257813 1614.648438 Z M 1875.234375 1614.648438 " transform="matrix(0.1,0,0,-0.1,0,346)"/>
<path style="fill-rule:evenodd;fill:rgb(23.098755%,43.499756%,50.19989%);fill-opacity:1;stroke-width:20.8555;stroke-linecap:butt;stroke-linejoin:miter;stroke:rgb(13.699341%,12.199402%,12.5%);stroke-opacity:1;stroke-miterlimit:4;" d="M 3626.132813 499.6875 L 3897.382813 499.6875 L 3670 1617.109375 L 3107.617188 1614.648438 L 3151.640625 499.6875 L 3448.242188 499.6875 L 3446.210938 656.5625 L 3583.828125 656.5625 Z M 3444.375 801.054688 L 3439.335938 1192.851563 L 3544.882813 801.054688 Z M 3444.375 801.054688 " transform="matrix(0.1,0,0,-0.1,0,346)"/>
<path style=" stroke:none;fill-rule:evenodd;fill:rgb(23.098755%,43.499756%,50.19989%);fill-opacity:1;" d="M 459.664063 184.535156 L 395.117188 184.535156 L 397.074219 296.03125 L 451.84375 296.03125 L 468.957031 286.011719 L 481.183594 210.699219 L 481.183594 203.847656 Z M 437.46875 283.765625 L 425.714844 283.765625 L 429.390625 205.167969 L 442.613281 205.167969 L 437.46875 283.765625 "/>
<path style="fill:none;stroke-width:20.8555;stroke-linecap:butt;stroke-linejoin:miter;stroke:rgb(13.699341%,12.199402%,12.5%);stroke-opacity:1;stroke-miterlimit:4;" d="M 4596.640625 1614.648438 L 3951.171875 1614.648438 L 3970.742188 499.6875 L 4518.4375 499.6875 L 4689.570313 599.882813 L 4811.835938 1353.007813 L 4811.835938 1421.523438 Z M 4374.6875 622.34375 L 4257.148438 622.34375 L 4293.90625 1408.320313 L 4426.132813 1408.320313 Z M 4374.6875 622.34375 " transform="matrix(0.1,0,0,-0.1,0,346)"/>
<path style=" stroke:none;fill-rule:evenodd;fill:rgb(23.098755%,43.499756%,50.19989%);fill-opacity:1;" d="M 570.679688 206.054688 L 577.765625 184.535156 L 497.5625 184.535156 L 474.824219 296.03125 L 542.558594 296.03125 L 546.71875 282.832031 L 512.726563 282.832031 L 520.246094 251.140625 L 551.355469 251.777344 L 557.960938 233.683594 L 524.386719 233.683594 L 531.0625 205.5625 L 570.679688 206.054688 "/>
<path style="fill:none;stroke-width:20.8555;stroke-linecap:butt;stroke-linejoin:miter;stroke:rgb(13.699341%,12.199402%,12.5%);stroke-opacity:1;stroke-miterlimit:4;" d="M 5706.796875 1399.453125 L 5777.65625 1614.648438 L 4975.625 1614.648438 L 4748.242188 499.6875 L 5425.585938 499.6875 L 5467.1875 631.679688 L 5127.265625 631.679688 L 5202.460938 948.59375 L 5513.554688 942.226563 L 5579.609375 1123.164063 L 5243.867188 1123.164063 L 5310.625 1404.375 Z M 5706.796875 1399.453125 " transform="matrix(0.1,0,0,-0.1,0,346)"/>
<path style=" stroke:none;fill-rule:evenodd;fill:rgb(23.098755%,43.499756%,50.19989%);fill-opacity:1;" d="M 656.746094 184.535156 L 589.019531 184.289063 L 547.445313 296.523438 L 578.765625 296.421875 L 595.089844 259.039063 L 606.457031 259.039063 L 589.796875 296.375 L 620.796875 296.273438 L 640.113281 260.335938 L 629.113281 248.84375 L 649.40625 239.796875 L 669.210938 205.808594 L 669.210938 201.890625 Z M 614.519531 240.980469 L 602.972656 240.980469 L 618.410156 205.609375 L 630.296875 205.609375 L 614.519531 240.980469 "/>
<path style="fill:none;stroke-width:20.8555;stroke-linecap:butt;stroke-linejoin:miter;stroke:rgb(13.699341%,12.199402%,12.5%);stroke-opacity:1;stroke-miterlimit:4;" d="M 6567.460938 1614.648438 L 5890.195313 1617.109375 L 5474.453125 494.765625 L 5787.65625 495.78125 L 5950.898438 869.609375 L 6064.570313 869.609375 L 5897.96875 496.25 L 6207.96875 497.265625 L 6401.132813 856.640625 L 6291.132813 971.5625 L 6494.0625 1062.03125 L 6692.109375 1401.914063 L 6692.109375 1441.09375 Z M 6145.195313 1050.195313 L 6029.726563 1050.195313 L 6184.101563 1403.90625 L 6302.96875 1403.90625 Z M 6145.195313 1050.195313 " transform="matrix(0.1,0,0,-0.1,0,346)"/>
<path style=" stroke:none;fill-rule:evenodd;fill:rgb(23.098755%,43.499756%,50.19989%);fill-opacity:1;" d="M 756.992188 184.289063 L 712 184.289063 L 682.171875 201.40625 L 659.679688 238.082031 L 659.679688 246.890625 L 668.71875 259.117188 L 692.199219 259.117188 L 676.304688 281.121094 L 670.433594 281.121094 L 677.039063 272.3125 L 677.039063 267.425781 L 645.742188 267.425781 L 635.964844 282.339844 L 635.964844 288.207031 L 642.804688 296.03125 L 681.925781 296.523438 L 705.160156 284.050781 L 727.40625 255.6875 L 727.40625 250.066406 L 720.066406 239.550781 L 695.867188 239.550781 L 715.671875 205.808594 L 725.941406 205.5625 L 711.027344 230.015625 L 746.234375 230.015625 L 764.082031 205.320313 L 764.082031 198.71875 L 756.992188 184.289063 "/>
<path style="fill:none;stroke-width:20.8555;stroke-linecap:butt;stroke-linejoin:miter;stroke:rgb(13.699341%,12.199402%,12.5%);stroke-opacity:1;stroke-miterlimit:4;" d="M 7569.921875 1617.109375 L 7120 1617.109375 L 6821.71875 1445.9375 L 6596.796875 1079.179688 L 6596.796875 991.09375 L 6687.1875 868.828125 L 6921.992188 868.828125 L 6763.046875 648.789063 L 6704.335938 648.789063 L 6770.390625 736.875 L 6770.390625 785.742188 L 6457.421875 785.742188 L 6359.648438 636.601563 L 6359.648438 577.929688 L 6428.046875 499.6875 L 6819.257813 494.765625 L 7051.601563 619.492188 L 7274.0625 903.125 L 7274.0625 959.335938 L 7200.664063 1064.492188 L 6958.671875 1064.492188 L 7156.71875 1401.914063 L 7259.414063 1404.375 L 7110.273438 1159.84375 L 7462.34375 1159.84375 L 7640.820313 1406.796875 L 7640.820313 1472.8125 Z M 7569.921875 1617.109375 " transform="matrix(0.1,0,0,-0.1,0,346)"/>
<path style=" stroke:none;fill-rule:evenodd;fill:rgb(32.899475%,21.199036%,55.699158%);fill-opacity:1;" d="M 22.914063 203.140625 L 104.957031 320.890625 L 137.707031 320.890625 L 61.117188 203.09375 L 22.914063 203.140625 "/>
<path style=" stroke:none;fill-rule:evenodd;fill:rgb(32.899475%,21.199036%,55.699158%);fill-opacity:1;" d="M 75.292969 203.011719 L 146.328125 320.890625 L 178.757813 320.890625 L 154.824219 275.59375 L 196.773438 320.632813 L 219.9375 320.632813 L 168.460938 203.273438 L 128.828125 203.011719 L 154.050781 256.035156 L 107.722656 203.011719 L 75.292969 203.011719 "/>
<path style=" stroke:none;fill-rule:evenodd;fill:rgb(32.899475%,21.199036%,55.699158%);fill-opacity:1;" d="M 176.183594 203.273438 L 241.816406 320.632813 L 296.125 320.632813 L 285.3125 203.011719 L 241.816406 203.011719 L 258.804688 289.746094 L 216.078125 203.273438 L 176.183594 203.273438 "/>
<path style=" stroke:none;fill-rule:evenodd;fill:rgb(32.899475%,21.199036%,55.699158%);fill-opacity:1;" d="M 360.484375 320.632813 L 389.039063 320.632813 L 365.101563 203.011719 L 305.90625 203.273438 L 310.539063 320.632813 L 341.761719 320.632813 L 341.546875 304.117188 L 356.035156 304.117188 Z M 341.351563 288.910156 L 340.824219 247.671875 L 351.933594 288.910156 Z M 341.351563 288.910156 "/>
<path style=" stroke:none;fill-rule:evenodd;fill:rgb(32.899475%,21.199036%,55.699158%);fill-opacity:1;" d="M 462.644531 203.273438 L 394.703125 203.273438 L 396.761719 320.632813 L 454.414063 320.632813 L 472.429688 310.085938 L 485.296875 230.808594 L 485.296875 223.601563 Z M 439.28125 307.722656 L 426.914063 307.722656 L 430.777344 224.988281 L 444.695313 224.988281 L 439.28125 307.722656 "/>
<path style=" stroke:none;fill-rule:evenodd;fill:rgb(32.899475%,21.199036%,55.699158%);fill-opacity:1;" d="M 579.5 225.921875 L 586.964844 203.273438 L 502.539063 203.273438 L 478.605469 320.632813 L 549.898438 320.632813 L 554.277344 306.738281 L 518.503906 306.738281 L 526.417969 273.382813 L 559.164063 274.054688 L 566.113281 255.003906 L 530.777344 255.003906 L 537.804688 225.402344 L 579.5 225.921875 "/>
<path style=" stroke:none;fill-rule:evenodd;fill:rgb(32.899475%,21.199036%,55.699158%);fill-opacity:1;" d="M 670.097656 203.273438 L 598.804688 203.011719 L 555.050781 321.152344 L 588.019531 321.042969 L 605.195313 281.695313 L 617.164063 281.695313 L 599.625 320.996094 L 632.265625 320.890625 L 652.597656 283.0625 L 641.011719 270.960938 L 662.378906 261.4375 L 683.222656 225.660156 L 683.222656 221.542969 Z M 625.652344 262.683594 L 613.496094 262.683594 L 629.746094 225.453125 L 642.261719 225.453125 L 625.652344 262.683594 "/>
<path style=" stroke:none;fill-rule:evenodd;fill:rgb(32.899475%,21.199036%,55.699158%);fill-opacity:1;" d="M 775.628906 203.011719 L 728.265625 203.011719 L 696.863281 221.027344 L 673.1875 259.632813 L 673.1875 268.902344 L 682.707031 281.773438 L 707.421875 281.773438 L 690.691406 304.9375 L 684.511719 304.9375 L 691.460938 295.667969 L 691.460938 290.519531 L 658.519531 290.519531 L 648.222656 306.222656 L 648.222656 312.394531 L 655.429688 320.632813 L 696.609375 321.152344 L 721.058594 308.023438 L 744.476563 278.167969 L 744.476563 272.25 L 736.753906 261.183594 L 711.277344 261.183594 L 732.125 225.660156 L 742.9375 225.402344 L 727.234375 251.140625 L 764.296875 251.140625 L 783.085938 225.148438 L 783.085938 218.199219 L 775.628906 203.011719 "/>
<path style=" stroke:none;fill-rule:evenodd;fill:rgb(29.798889%,27.49939%,55.699158%);fill-opacity:1;" d="M 22.914063 203.140625 L 104.957031 320.890625 L 137.707031 320.890625 L 61.117188 203.09375 L 22.914063 203.140625 "/>
<path style="fill:none;stroke-width:20.8555;stroke-linecap:butt;stroke-linejoin:miter;stroke:rgb(13.699341%,12.199402%,12.5%);stroke-opacity:1;stroke-miterlimit:4;" d="M 229.140625 1428.59375 L 1049.570313 251.09375 L 1377.070313 251.09375 L 611.171875 1429.0625 Z M 229.140625 1428.59375 " transform="matrix(0.1,0,0,-0.1,0,346)"/>
<path style=" stroke:none;fill-rule:evenodd;fill:rgb(29.798889%,27.49939%,55.699158%);fill-opacity:1;" d="M 75.292969 203.011719 L 146.328125 320.890625 L 178.757813 320.890625 L 154.824219 275.59375 L 196.773438 320.632813 L 219.9375 320.632813 L 168.460938 203.273438 L 128.828125 203.011719 L 154.050781 256.035156 L 107.722656 203.011719 L 75.292969 203.011719 "/>
<path style="fill:none;stroke-width:20.8555;stroke-linecap:butt;stroke-linejoin:miter;stroke:rgb(13.699341%,12.199402%,12.5%);stroke-opacity:1;stroke-miterlimit:4;" d="M 752.929688 1429.882813 L 1463.28125 251.09375 L 1787.578125 251.09375 L 1548.242188 704.0625 L 1967.734375 253.671875 L 2199.375 253.671875 L 1684.609375 1427.265625 L 1288.28125 1429.882813 L 1540.507813 899.648438 L 1077.226563 1429.882813 Z M 752.929688 1429.882813 " transform="matrix(0.1,0,0,-0.1,0,346)"/>
<path style=" stroke:none;fill-rule:evenodd;fill:rgb(29.798889%,27.49939%,55.699158%);fill-opacity:1;" d="M 176.183594 203.273438 L 241.816406 320.632813 L 296.125 320.632813 L 285.3125 203.011719 L 241.816406 203.011719 L 258.804688 289.746094 L 216.078125 203.273438 L 176.183594 203.273438 "/>
<path style="fill:none;stroke-width:20.8555;stroke-linecap:butt;stroke-linejoin:miter;stroke:rgb(13.699341%,12.199402%,12.5%);stroke-opacity:1;stroke-miterlimit:4;" d="M 1761.835938 1427.265625 L 2418.164063 253.671875 L 2961.25 253.671875 L 2853.125 1429.882813 L 2418.164063 1429.882813 L 2588.046875 562.539063 L 2160.78125 1427.265625 Z M 1761.835938 1427.265625 " transform="matrix(0.1,0,0,-0.1,0,346)"/>
<path style="fill-rule:evenodd;fill:rgb(29.798889%,27.49939%,55.699158%);fill-opacity:1;stroke-width:20.8555;stroke-linecap:butt;stroke-linejoin:miter;stroke:rgb(13.699341%,12.199402%,12.5%);stroke-opacity:1;stroke-miterlimit:4;" d="M 3604.84375 253.671875 L 3890.390625 253.671875 L 3651.015625 1429.882813 L 3059.0625 1427.265625 L 3105.390625 253.671875 L 3417.617188 253.671875 L 3415.46875 418.828125 L 3560.351563 418.828125 Z M 3413.515625 570.898438 L 3408.242188 983.28125 L 3519.335938 570.898438 Z M 3413.515625 570.898438 " transform="matrix(0.1,0,0,-0.1,0,346)"/>
<path style=" stroke:none;fill-rule:evenodd;fill:rgb(29.798889%,27.49939%,55.699158%);fill-opacity:1;" d="M 462.644531 203.273438 L 394.703125 203.273438 L 396.761719 320.632813 L 454.414063 320.632813 L 472.429688 310.085938 L 485.296875 230.808594 L 485.296875 223.601563 Z M 439.28125 307.722656 L 426.914063 307.722656 L 430.777344 224.988281 L 444.695313 224.988281 L 439.28125 307.722656 "/>
<path style="fill:none;stroke-width:20.8555;stroke-linecap:butt;stroke-linejoin:miter;stroke:rgb(13.699341%,12.199402%,12.5%);stroke-opacity:1;stroke-miterlimit:4;" d="M 4626.445313 1427.265625 L 3947.03125 1427.265625 L 3967.617188 253.671875 L 4544.140625 253.671875 L 4724.296875 359.140625 L 4852.96875 1151.914063 L 4852.96875 1223.984375 Z M 4392.8125 382.773438 L 4269.140625 382.773438 L 4307.773438 1210.117188 L 4446.953125 1210.117188 Z M 4392.8125 382.773438 " transform="matrix(0.1,0,0,-0.1,0,346)"/>
<path style=" stroke:none;fill-rule:evenodd;fill:rgb(29.798889%,27.49939%,55.699158%);fill-opacity:1;" d="M 579.5 225.921875 L 586.964844 203.273438 L 502.539063 203.273438 L 478.605469 320.632813 L 549.898438 320.632813 L 554.277344 306.738281 L 518.503906 306.738281 L 526.417969 273.382813 L 559.164063 274.054688 L 566.113281 255.003906 L 530.777344 255.003906 L 537.804688 225.402344 L 579.5 225.921875 "/>
<path style="fill:none;stroke-width:20.8555;stroke-linecap:butt;stroke-linejoin:miter;stroke:rgb(13.699341%,12.199402%,12.5%);stroke-opacity:1;stroke-miterlimit:4;" d="M 5795 1200.78125 L 5869.648438 1427.265625 L 5025.390625 1427.265625 L 4786.054688 253.671875 L 5498.984375 253.671875 L 5542.773438 392.617188 L 5185.039063 392.617188 L 5264.179688 726.171875 L 5591.640625 719.453125 L 5661.132813 909.960938 L 5307.773438 909.960938 L 5378.046875 1205.976563 Z M 5795 1200.78125 " transform="matrix(0.1,0,0,-0.1,0,346)"/>
<path style=" stroke:none;fill-rule:evenodd;fill:rgb(29.798889%,27.49939%,55.699158%);fill-opacity:1;" d="M 670.097656 203.273438 L 598.804688 203.011719 L 555.050781 321.152344 L 588.019531 321.042969 L 605.195313 281.695313 L 617.164063 281.695313 L 599.625 320.996094 L 632.265625 320.890625 L 652.597656 283.0625 L 641.011719 270.960938 L 662.378906 261.4375 L 683.222656 225.660156 L 683.222656 221.542969 Z M 625.652344 262.683594 L 613.496094 262.683594 L 629.746094 225.453125 L 642.261719 225.453125 L 625.652344 262.683594 "/>
<path style="fill:none;stroke-width:20.8555;stroke-linecap:butt;stroke-linejoin:miter;stroke:rgb(13.699341%,12.199402%,12.5%);stroke-opacity:1;stroke-miterlimit:4;" d="M 6700.976563 1427.265625 L 5988.046875 1429.882813 L 5550.507813 248.476563 L 5880.195313 249.570313 L 6051.953125 643.046875 L 6171.640625 643.046875 L 5996.25 250.039063 L 6322.65625 251.09375 L 6525.976563 629.375 L 6410.117188 750.390625 L 6623.789063 845.625 L 6832.226563 1203.398438 L 6832.226563 1244.570313 Z M 6256.523438 833.164063 L 6134.960938 833.164063 L 6297.460938 1205.46875 L 6422.617188 1205.46875 Z M 6256.523438 833.164063 " transform="matrix(0.1,0,0,-0.1,0,346)"/>
<path style=" stroke:none;fill-rule:evenodd;fill:rgb(29.798889%,27.49939%,55.699158%);fill-opacity:1;" d="M 775.628906 203.011719 L 728.265625 203.011719 L 696.863281 221.027344 L 673.1875 259.632813 L 673.1875 268.902344 L 682.707031 281.773438 L 707.421875 281.773438 L 690.691406 304.9375 L 684.511719 304.9375 L 691.460938 295.667969 L 691.460938 290.519531 L 658.519531 290.519531 L 648.222656 306.222656 L 648.222656 312.394531 L 655.429688 320.632813 L 696.609375 321.152344 L 721.058594 308.023438 L 744.476563 278.167969 L 744.476563 272.25 L 736.753906 261.183594 L 711.277344 261.183594 L 732.125 225.660156 L 742.9375 225.402344 L 727.234375 251.140625 L 764.296875 251.140625 L 783.085938 225.148438 L 783.085938 218.199219 L 775.628906 203.011719 "/>
<path style="fill:none;stroke-width:20.8555;stroke-linecap:butt;stroke-linejoin:miter;stroke:rgb(13.699341%,12.199402%,12.5%);stroke-opacity:1;stroke-miterlimit:4;" d="M 7756.289063 1429.882813 L 7282.65625 1429.882813 L 6968.632813 1249.726563 L 6731.875 863.671875 L 6731.875 770.976563 L 6827.070313 642.265625 L 7074.21875 642.265625 L 6906.914063 410.625 L 6845.117188 410.625 L 6914.609375 503.320313 L 6914.609375 554.804688 L 6585.195313 554.804688 L 6482.226563 397.773438 L 6482.226563 336.054688 L 6554.296875 253.671875 L 6966.09375 248.476563 L 7210.585938 379.765625 L 7444.765625 678.320313 L 7444.765625 737.5 L 7367.539063 848.164063 L 7112.773438 848.164063 L 7321.25 1203.398438 L 7429.375 1205.976563 L 7272.34375 948.59375 L 7642.96875 948.59375 L 7830.859375 1208.515625 L 7830.859375 1278.007813 Z M 7756.289063 1429.882813 " transform="matrix(0.1,0,0,-0.1,0,346)"/>
<path style=" stroke:none;fill-rule:evenodd;fill:rgb(98.399353%,92.199707%,18.798828%);fill-opacity:1;" d="M 2.910156 220.628906 L 89.265625 344.578125 L 123.742188 344.578125 L 43.121094 220.578125 L 2.910156 220.628906 "/>
<path style="fill:none;stroke-width:20.8555;stroke-linecap:butt;stroke-linejoin:miter;stroke:rgb(13.699341%,12.199402%,12.5%);stroke-opacity:1;stroke-miterlimit:4;" d="M 29.101563 1253.710938 L 892.65625 14.21875 L 1237.421875 14.21875 L 431.210938 1254.21875 Z M 29.101563 1253.710938 " transform="matrix(0.1,0,0,-0.1,0,346)"/>
<path style=" stroke:none;fill-rule:evenodd;fill:rgb(98.399353%,92.199707%,18.798828%);fill-opacity:1;" d="M 58.042969 220.492188 L 132.820313 344.578125 L 166.957031 344.578125 L 141.761719 296.894531 L 185.921875 344.304688 L 210.304688 344.304688 L 156.117188 220.765625 L 114.394531 220.492188 L 140.945313 276.300781 L 92.179688 220.492188 L 58.042969 220.492188 "/>
<path style="fill:none;stroke-width:20.8555;stroke-linecap:butt;stroke-linejoin:miter;stroke:rgb(13.699341%,12.199402%,12.5%);stroke-opacity:1;stroke-miterlimit:4;" d="M 580.429688 1255.078125 L 1328.203125 14.21875 L 1669.570313 14.21875 L 1417.617188 491.054688 L 1859.21875 16.953125 L 2103.046875 16.953125 L 1561.171875 1252.34375 L 1143.945313 1255.078125 L 1409.453125 696.992188 L 921.796875 1255.078125 Z M 580.429688 1255.078125 " transform="matrix(0.1,0,0,-0.1,0,346)"/>
<path style=" stroke:none;fill-rule:evenodd;fill:rgb(98.399353%,92.199707%,18.798828%);fill-opacity:1;" d="M 164.246094 220.765625 L 233.332031 344.304688 L 290.496094 344.304688 L 279.117188 220.492188 L 233.332031 220.492188 L 251.214844 311.796875 L 206.238281 220.765625 L 164.246094 220.765625 "/>
<path style="fill:none;stroke-width:20.8555;stroke-linecap:butt;stroke-linejoin:miter;stroke:rgb(13.699341%,12.199402%,12.5%);stroke-opacity:1;stroke-miterlimit:4;" d="M 1642.460938 1252.34375 L 2333.320313 16.953125 L 2904.960938 16.953125 L 2791.171875 1255.078125 L 2333.320313 1255.078125 L 2512.148438 342.03125 L 2062.382813 1252.34375 Z M 1642.460938 1252.34375 " transform="matrix(0.1,0,0,-0.1,0,346)"/>
<path style="fill-rule:evenodd;fill:rgb(98.399353%,92.199707%,18.798828%);fill-opacity:1;stroke-width:20.8555;stroke-linecap:butt;stroke-linejoin:miter;stroke:rgb(13.699341%,12.199402%,12.5%);stroke-opacity:1;stroke-miterlimit:4;" d="M 3582.460938 16.953125 L 3883.007813 16.953125 L 3631.054688 1255.078125 L 3007.929688 1252.34375 L 3056.679688 16.953125 L 3385.351563 16.953125 L 3383.125 190.78125 L 3535.625 190.78125 Z M 3381.054688 350.898438 L 3375.507813 784.960938 L 3492.460938 350.898438 Z M 3381.054688 350.898438 " transform="matrix(0.1,0,0,-0.1,0,346)"/>
<path style=" stroke:none;fill-rule:evenodd;fill:rgb(98.399353%,92.199707%,18.798828%);fill-opacity:1;" d="M 465.789063 220.765625 L 394.261719 220.765625 L 396.429688 344.304688 L 457.117188 344.304688 L 476.085938 333.199219 L 489.628906 249.753906 L 489.628906 242.167969 Z M 441.191406 330.71875 L 428.171875 330.71875 L 432.238281 243.628906 L 446.890625 243.628906 L 441.191406 330.71875 "/>
<path style="fill:none;stroke-width:20.8555;stroke-linecap:butt;stroke-linejoin:miter;stroke:rgb(13.699341%,12.199402%,12.5%);stroke-opacity:1;stroke-miterlimit:4;" d="M 4657.890625 1252.34375 L 3942.617188 1252.34375 L 3964.296875 16.953125 L 4571.171875 16.953125 L 4760.859375 128.007813 L 4896.289063 962.460938 L 4896.289063 1038.320313 Z M 4411.914063 152.8125 L 4281.71875 152.8125 L 4322.382813 1023.710938 L 4468.90625 1023.710938 Z M 4411.914063 152.8125 " transform="matrix(0.1,0,0,-0.1,0,346)"/>
<path style=" stroke:none;fill-rule:evenodd;fill:rgb(98.399353%,92.199707%,18.798828%);fill-opacity:1;" d="M 588.789063 244.605469 L 596.644531 220.765625 L 507.78125 220.765625 L 482.585938 344.304688 L 557.632813 344.304688 L 562.238281 329.675781 L 524.578125 329.675781 L 532.910156 294.570313 L 567.382813 295.269531 L 574.699219 275.21875 L 537.503906 275.21875 L 544.898438 244.0625 L 588.789063 244.605469 "/>
<path style="fill:none;stroke-width:20.8555;stroke-linecap:butt;stroke-linejoin:miter;stroke:rgb(13.699341%,12.199402%,12.5%);stroke-opacity:1;stroke-miterlimit:4;" d="M 5887.890625 1013.945313 L 5966.445313 1252.34375 L 5077.8125 1252.34375 L 4825.859375 16.953125 L 5576.328125 16.953125 L 5622.382813 163.242188 L 5245.78125 163.242188 L 5329.101563 514.296875 L 5673.828125 507.304688 L 5746.992188 707.8125 L 5375.039063 707.8125 L 5448.984375 1019.375 Z M 5887.890625 1013.945313 " transform="matrix(0.1,0,0,-0.1,0,346)"/>
<path style=" stroke:none;fill-rule:evenodd;fill:rgb(98.399353%,92.199707%,18.798828%);fill-opacity:1;" d="M 684.152344 220.765625 L 609.105469 220.492188 L 563.046875 344.847656 L 597.753906 344.734375 L 615.835938 303.320313 L 628.4375 303.320313 L 609.976563 344.691406 L 644.328125 344.578125 L 665.730469 304.753906 L 653.539063 292.015625 L 676.023438 281.996094 L 697.972656 244.335938 L 697.972656 240.003906 Z M 637.367188 283.300781 L 624.574219 283.300781 L 641.679688 244.117188 L 654.855469 244.117188 L 637.367188 283.300781 "/>
<path style="fill:none;stroke-width:20.8555;stroke-linecap:butt;stroke-linejoin:miter;stroke:rgb(13.699341%,12.199402%,12.5%);stroke-opacity:1;stroke-miterlimit:4;" d="M 6841.523438 1252.34375 L 6091.054688 1255.078125 L 5630.46875 11.523438 L 5977.539063 12.65625 L 6158.359375 426.796875 L 6284.375 426.796875 L 6099.765625 13.085938 L 6443.28125 14.21875 L 6657.304688 412.460938 L 6535.390625 539.84375 L 6760.234375 640.039063 L 6979.726563 1016.640625 L 6979.726563 1059.960938 Z M 6373.671875 626.992188 L 6245.742188 626.992188 L 6416.796875 1018.828125 L 6548.554688 1018.828125 Z M 6373.671875 626.992188 " transform="matrix(0.1,0,0,-0.1,0,346)"/>
<path style=" stroke:none;fill-rule:evenodd;fill:rgb(98.399353%,92.199707%,18.798828%);fill-opacity:1;" d="M 795.234375 220.492188 L 745.382813 220.492188 L 712.328125 239.460938 L 687.402344 280.09375 L 687.402344 289.847656 L 697.429688 303.394531 L 723.4375 303.394531 L 705.828125 327.78125 L 699.324219 327.78125 L 706.640625 318.027344 L 706.640625 312.609375 L 671.964844 312.609375 L 661.125 329.132813 L 661.125 335.636719 L 668.710938 344.304688 L 712.058594 344.847656 L 737.796875 331.03125 L 762.453125 299.601563 L 762.453125 293.375 L 754.324219 281.722656 L 727.5 281.722656 L 749.445313 244.335938 L 760.828125 244.0625 L 744.300781 271.15625 L 783.3125 271.15625 L 803.089844 243.796875 L 803.089844 236.476563 L 795.234375 220.492188 "/>
<path style="fill:none;stroke-width:20.8555;stroke-linecap:butt;stroke-linejoin:miter;stroke:rgb(13.699341%,12.199402%,12.5%);stroke-opacity:1;stroke-miterlimit:4;" d="M 7952.34375 1255.078125 L 7453.828125 1255.078125 L 7123.28125 1065.390625 L 6874.023438 659.0625 L 6874.023438 561.523438 L 6974.296875 426.054688 L 7234.375 426.054688 L 7058.28125 182.1875 L 6993.242188 182.1875 L 7066.40625 279.726563 L 7066.40625 333.90625 L 6719.648438 333.90625 L 6611.25 168.671875 L 6611.25 103.632813 L 6687.109375 16.953125 L 7120.585938 11.523438 L 7377.96875 149.6875 L 7624.53125 463.984375 L 7624.53125 526.25 L 7543.242188 642.773438 L 7275 642.773438 L 7494.453125 1016.640625 L 7608.28125 1019.375 L 7443.007813 748.4375 L 7833.125 748.4375 L 8030.898438 1022.03125 L 8030.898438 1095.234375 Z M 7952.34375 1255.078125 " transform="matrix(0.1,0,0,-0.1,0,346)"/>
<path style=" stroke:none;fill-rule:evenodd;fill:rgb(23.098755%,43.499756%,50.19989%);fill-opacity:1;" d="M 243.960938 1.394531 L 197.4375 1.394531 L 181.6875 23.6875 L 182.414063 31.199219 L 196.46875 68.03125 L 221.910156 93.230469 L 247.109375 93.230469 L 253.652344 114.3125 L 247.59375 114.3125 L 243.960938 103.164063 L 208.828125 103.164063 L 208.828125 109.222656 L 214.882813 122.785156 L 235.476563 137.578125 L 273.039063 137.578125 L 287.574219 121.578125 L 287.574219 114.554688 L 282.003906 85.476563 L 260.921875 66.089844 L 234.511719 66.089844 L 223.851563 32.171875 L 231.359375 32.171875 L 236.933594 54.703125 L 274.734375 54.703125 L 268.433594 24.414063 L 243.960938 1.394531 "/>
<path style="fill:none;stroke-width:20.8555;stroke-linecap:butt;stroke-linejoin:miter;stroke:rgb(13.699341%,12.199402%,12.5%);stroke-opacity:1;stroke-miterlimit:4;" d="M 2439.609375 3446.054688 L 1974.375 3446.054688 L 1816.875 3223.125 L 1824.140625 3148.007813 L 1964.6875 2779.6875 L 2219.101563 2527.695313 L 2471.09375 2527.695313 L 2536.523438 2316.875 L 2475.9375 2316.875 L 2439.609375 2428.359375 L 2088.28125 2428.359375 L 2088.28125 2367.773438 L 2148.828125 2232.148438 L 2354.765625 2084.21875 L 2730.390625 2084.21875 L 2875.742188 2244.21875 L 2875.742188 2314.453125 L 2820.039063 2605.234375 L 2609.21875 2799.101563 L 2345.117188 2799.101563 L 2238.515625 3138.28125 L 2313.59375 3138.28125 L 2369.335938 2912.96875 L 2747.34375 2912.96875 L 2684.335938 3215.859375 Z M 2439.609375 3446.054688 " transform="matrix(0.1,0,0,-0.1,0,346)"/>
<path style=" stroke:none;fill-rule:evenodd;fill:rgb(23.098755%,43.499756%,50.19989%);fill-opacity:1;" d="M 366.085938 23.445313 L 341.609375 1.152344 L 276.1875 1.394531 L 302.597656 137.332031 L 333.613281 137.332031 L 328.46875 101.898438 L 352.753906 101.953125 L 369.234375 79.417969 Z M 324.539063 74.816406 L 318.347656 32.171875 L 327.558594 32.171875 L 333.773438 74.816406 L 324.539063 74.816406 "/>
<path style="fill:none;stroke-width:20.8555;stroke-linecap:butt;stroke-linejoin:miter;stroke:rgb(13.699341%,12.199402%,12.5%);stroke-opacity:1;stroke-miterlimit:4;" d="M 3660.859375 3225.546875 L 3416.09375 3448.476563 L 2761.875 3446.054688 L 3025.976563 2086.679688 L 3336.132813 2086.679688 L 3284.6875 2441.015625 L 3527.539063 2440.46875 L 3692.34375 2665.820313 Z M 3245.390625 2711.835938 L 3183.476563 3138.28125 L 3275.585938 3138.28125 L 3337.734375 2711.835938 Z M 3245.390625 2711.835938 " transform="matrix(0.1,0,0,-0.1,0,346)"/>
<path style="fill-rule:evenodd;fill:rgb(23.098755%,43.499756%,50.19989%);fill-opacity:1;stroke-width:20.8555;stroke-linecap:butt;stroke-linejoin:miter;stroke:rgb(13.699341%,12.199402%,12.5%);stroke-opacity:1;stroke-miterlimit:4;" d="M 4194.921875 2080.664063 L 4489.804688 2080.664063 L 4372.539063 3445.234375 L 3845.859375 3445.234375 L 3718.945313 2080.664063 L 4016.796875 2080.664063 L 4037.304688 2315.351563 L 4173.671875 2315.351563 Z M 4055.585938 2523.59375 L 4104.414063 3081.367188 L 4154.882813 2523.59375 Z M 4055.585938 2523.59375 " transform="matrix(0.1,0,0,-0.1,0,346)"/>
<path style=" stroke:none;fill-rule:evenodd;fill:rgb(23.098755%,43.499756%,50.19989%);fill-opacity:1;" d="M 533.726563 1.476563 L 490.871094 1.476563 L 465.734375 24.21875 L 457.835938 120.933594 L 472.679688 137.933594 L 509.785156 137.6875 L 530.378906 121.171875 L 539.464844 85.738281 L 504.957031 85.738281 L 499.972656 116.863281 L 489.679688 116.863281 L 502.605469 30.199219 L 513.851563 30.199219 L 509.71875 56.054688 L 547.082031 56.054688 L 553.835938 29.722656 L 553.835938 22.539063 L 533.726563 1.476563 "/>
<path style="fill:none;stroke-width:20.8555;stroke-linecap:butt;stroke-linejoin:miter;stroke:rgb(13.699341%,12.199402%,12.5%);stroke-opacity:1;stroke-miterlimit:4;" d="M 5337.265625 3445.234375 L 4908.710938 3445.234375 L 4657.34375 3217.8125 L 4578.359375 2250.664063 L 4726.796875 2080.664063 L 5097.851563 2083.125 L 5303.789063 2248.28125 L 5394.648438 2602.617188 L 5049.570313 2602.617188 L 4999.726563 2291.367188 L 4896.796875 2291.367188 L 5026.054688 3158.007813 L 5138.515625 3158.007813 L 5097.1875 2899.453125 L 5470.820313 2899.453125 L 5538.359375 3162.773438 L 5538.359375 3234.609375 Z M 5337.265625 3445.234375 " transform="matrix(0.1,0,0,-0.1,0,346)"/>
<path style=" stroke:none;fill-rule:evenodd;fill:rgb(23.098755%,43.499756%,50.19989%);fill-opacity:1;" d="M 639.492188 31.878906 L 650.308594 1.714844 L 571.070313 1.476563 L 537.074219 137.933594 L 601.472656 137.933594 L 609.195313 116.378906 L 575.859375 116.378906 L 585.703125 83.585938 L 611.050781 83.585938 L 620.625 57.253906 L 593.613281 57.253906 L 601.230469 31.878906 L 639.492188 31.878906 "/>
<path style="fill:none;stroke-width:20.8555;stroke-linecap:butt;stroke-linejoin:miter;stroke:rgb(13.699341%,12.199402%,12.5%);stroke-opacity:1;stroke-miterlimit:4;" d="M 6394.921875 3141.210938 L 6503.085938 3442.851563 L 5710.703125 3445.234375 L 5370.742188 2080.664063 L 6014.726563 2080.664063 L 6091.953125 2296.210938 L 5758.59375 2296.210938 L 5857.03125 2624.140625 L 6110.507813 2624.140625 L 6206.25 2887.460938 L 5936.132813 2887.460938 L 6012.304688 3141.210938 Z M 6394.921875 3141.210938 " transform="matrix(0.1,0,0,-0.1,0,346)"/>
<path style=" stroke:none;fill-rule:evenodd;fill:rgb(29.798889%,27.49939%,55.699158%);fill-opacity:1;" d="M 232.980469 21.410156 L 183.484375 21.410156 L 166.730469 45.125 L 167.503906 53.117188 L 182.453125 92.292969 L 209.519531 119.105469 L 236.328125 119.105469 L 243.289063 141.53125 L 236.84375 141.53125 L 232.980469 129.671875 L 195.601563 129.671875 L 195.601563 136.117188 L 202.046875 150.546875 L 223.953125 166.28125 L 263.910156 166.28125 L 279.378906 149.261719 L 279.378906 141.789063 L 273.449219 110.855469 L 251.023438 90.234375 L 222.925781 90.234375 L 211.585938 54.144531 L 219.574219 54.144531 L 225.503906 78.121094 L 265.714844 78.121094 L 259.011719 45.894531 L 232.980469 21.410156 "/>
<path style="fill:none;stroke-width:20.8555;stroke-linecap:butt;stroke-linejoin:miter;stroke:rgb(13.699341%,12.199402%,12.5%);stroke-opacity:1;stroke-miterlimit:4;" d="M 2329.804688 3245.898438 L 1834.84375 3245.898438 L 1667.304688 3008.75 L 1675.039063 2928.828125 L 1824.53125 2537.070313 L 2095.195313 2268.945313 L 2363.28125 2268.945313 L 2432.890625 2044.6875 L 2368.4375 2044.6875 L 2329.804688 2163.28125 L 1956.015625 2163.28125 L 1956.015625 2098.828125 L 2020.46875 1954.53125 L 2239.53125 1797.1875 L 2639.101563 1797.1875 L 2793.789063 1967.382813 L 2793.789063 2042.109375 L 2734.492188 2351.445313 L 2510.234375 2557.65625 L 2229.257813 2557.65625 L 2115.859375 2918.554688 L 2195.742188 2918.554688 L 2255.039063 2678.789063 L 2657.148438 2678.789063 L 2590.117188 3001.054688 Z M 2329.804688 3245.898438 " transform="matrix(0.1,0,0,-0.1,0,346)"/>
<path style=" stroke:none;fill-rule:evenodd;fill:rgb(29.798889%,27.49939%,55.699158%);fill-opacity:1;" d="M 362.894531 44.867188 L 336.859375 21.152344 L 267.265625 21.410156 L 295.359375 166.019531 L 328.355469 166.019531 L 322.882813 128.328125 L 348.71875 128.386719 L 366.246094 104.410156 Z M 318.703125 99.515625 L 312.113281 54.144531 L 321.910156 54.144531 L 328.523438 99.515625 L 318.703125 99.515625 "/>
<path style="fill:none;stroke-width:20.8555;stroke-linecap:butt;stroke-linejoin:miter;stroke:rgb(13.699341%,12.199402%,12.5%);stroke-opacity:1;stroke-miterlimit:4;" d="M 3628.945313 3011.328125 L 3368.59375 3248.476563 L 2672.65625 3245.898438 L 2953.59375 1799.804688 L 3283.554688 1799.804688 L 3228.828125 2176.71875 L 3487.1875 2176.132813 L 3662.460938 2415.898438 Z M 3187.03125 2464.84375 L 3121.132813 2918.554688 L 3219.101563 2918.554688 L 3285.234375 2464.84375 Z M 3187.03125 2464.84375 " transform="matrix(0.1,0,0,-0.1,0,346)"/>
<path style="fill-rule:evenodd;fill:rgb(29.798889%,27.49939%,55.699158%);fill-opacity:1;stroke-width:20.8555;stroke-linecap:butt;stroke-linejoin:miter;stroke:rgb(13.699341%,12.199402%,12.5%);stroke-opacity:1;stroke-miterlimit:4;" d="M 4197.148438 1793.398438 L 4510.859375 1793.398438 L 4386.09375 3245.078125 L 3825.78125 3245.078125 L 3690.820313 1793.398438 L 4007.65625 1793.398438 L 4029.492188 2043.046875 L 4174.570313 2043.046875 Z M 4048.867188 2264.609375 L 4100.859375 2857.96875 L 4154.53125 2264.609375 Z M 4048.867188 2264.609375 " transform="matrix(0.1,0,0,-0.1,0,346)"/>
<path style=" stroke:none;fill-rule:evenodd;fill:rgb(29.798889%,27.49939%,55.699158%);fill-opacity:1;" d="M 541.238281 21.492188 L 495.652344 21.492188 L 468.910156 45.6875 L 460.507813 148.574219 L 476.300781 166.660156 L 515.773438 166.402344 L 537.675781 148.828125 L 547.34375 111.136719 L 510.632813 111.136719 L 505.328125 144.246094 L 494.378906 144.246094 L 508.132813 52.054688 L 520.101563 52.054688 L 515.699219 79.554688 L 555.445313 79.554688 L 562.632813 51.542969 L 562.632813 43.90625 L 541.238281 21.492188 "/>
<path style="fill:none;stroke-width:20.8555;stroke-linecap:butt;stroke-linejoin:miter;stroke:rgb(13.699341%,12.199402%,12.5%);stroke-opacity:1;stroke-miterlimit:4;" d="M 5412.382813 3245.078125 L 4956.523438 3245.078125 L 4689.101563 3003.125 L 4605.078125 1974.257813 L 4763.007813 1793.398438 L 5157.734375 1795.976563 L 5376.757813 1971.71875 L 5473.4375 2348.632813 L 5106.328125 2348.632813 L 5053.28125 2017.539063 L 4943.789063 2017.539063 L 5081.328125 2939.453125 L 5201.015625 2939.453125 L 5156.992188 2664.453125 L 5554.453125 2664.453125 L 5626.328125 2944.570313 L 5626.328125 3020.9375 Z M 5412.382813 3245.078125 " transform="matrix(0.1,0,0,-0.1,0,346)"/>
<path style=" stroke:none;fill-rule:evenodd;fill:rgb(29.798889%,27.49939%,55.699158%);fill-opacity:1;" d="M 653.757813 53.835938 L 665.265625 21.746094 L 580.96875 21.492188 L 544.804688 166.660156 L 613.308594 166.660156 L 621.527344 143.730469 L 586.0625 143.730469 L 596.539063 108.84375 L 623.5 108.84375 L 633.6875 80.832031 L 604.949219 80.832031 L 613.058594 53.835938 L 653.757813 53.835938 "/>
<path style="fill:none;stroke-width:20.8555;stroke-linecap:butt;stroke-linejoin:miter;stroke:rgb(13.699341%,12.199402%,12.5%);stroke-opacity:1;stroke-miterlimit:4;" d="M 6537.578125 2921.640625 L 6652.65625 3242.539063 L 5809.6875 3245.078125 L 5448.046875 1793.398438 L 6133.085938 1793.398438 L 6215.273438 2022.695313 L 5860.625 2022.695313 L 5965.390625 2371.5625 L 6235 2371.5625 L 6336.875 2651.679688 L 6049.492188 2651.679688 L 6130.585938 2921.640625 Z M 6537.578125 2921.640625 " transform="matrix(0.1,0,0,-0.1,0,346)"/>
<path style=" stroke:none;fill-rule:evenodd;fill:rgb(98.399353%,92.199707%,18.798828%);fill-opacity:1;" d="M 221.296875 38.339844 L 168.644531 38.339844 L 150.820313 63.570313 L 151.640625 72.070313 L 167.550781 113.753906 L 196.339844 142.273438 L 224.859375 142.273438 L 232.265625 166.128906 L 225.40625 166.128906 L 221.296875 153.515625 L 181.53125 153.515625 L 181.53125 160.371094 L 188.386719 175.726563 L 211.695313 192.457031 L 254.203125 192.457031 L 270.652344 174.355469 L 270.652344 166.40625 L 264.351563 133.496094 L 240.492188 111.558594 L 210.601563 111.558594 L 198.535156 73.167969 L 207.035156 73.167969 L 213.34375 98.671875 L 256.121094 98.671875 L 248.988281 64.394531 L 221.296875 38.339844 "/>
<path style="fill:none;stroke-width:20.8555;stroke-linecap:butt;stroke-linejoin:miter;stroke:rgb(13.699341%,12.199402%,12.5%);stroke-opacity:1;stroke-miterlimit:4;" d="M 2212.96875 3076.601563 L 1686.445313 3076.601563 L 1508.203125 2824.296875 L 1516.40625 2739.296875 L 1675.507813 2322.460938 L 1963.398438 2037.265625 L 2248.59375 2037.265625 L 2322.65625 1798.710938 L 2254.0625 1798.710938 L 2212.96875 1924.84375 L 1815.3125 1924.84375 L 1815.3125 1856.289063 L 1883.867188 1702.734375 L 2116.953125 1535.429688 L 2542.03125 1535.429688 L 2706.523438 1716.445313 L 2706.523438 1795.9375 L 2643.515625 2125.039063 L 2404.921875 2344.414063 L 2106.015625 2344.414063 L 1985.351563 2728.320313 L 2070.351563 2728.320313 L 2133.4375 2473.28125 L 2561.210938 2473.28125 L 2489.882813 2816.054688 Z M 2212.96875 3076.601563 " transform="matrix(0.1,0,0,-0.1,0,346)"/>
<path style=" stroke:none;fill-rule:evenodd;fill:rgb(98.399353%,92.199707%,18.798828%);fill-opacity:1;" d="M 359.507813 63.296875 L 331.808594 38.066406 L 257.769531 38.339844 L 287.65625 192.183594 L 322.757813 192.183594 L 316.9375 152.085938 L 344.421875 152.144531 L 363.070313 126.644531 Z M 312.488281 121.429688 L 305.484375 73.167969 L 315.902344 73.167969 L 322.941406 121.429688 L 312.488281 121.429688 "/>
<path style="fill:none;stroke-width:20.8555;stroke-linecap:butt;stroke-linejoin:miter;stroke:rgb(13.699341%,12.199402%,12.5%);stroke-opacity:1;stroke-miterlimit:4;" d="M 3595.078125 2827.03125 L 3318.085938 3079.335938 L 2577.695313 3076.601563 L 2876.5625 1538.164063 L 3227.578125 1538.164063 L 3169.375 1939.140625 L 3444.21875 1938.554688 L 3630.703125 2193.554688 Z M 3124.882813 2245.703125 L 3054.84375 2728.320313 L 3159.023438 2728.320313 L 3229.414063 2245.703125 Z M 3124.882813 2245.703125 " transform="matrix(0.1,0,0,-0.1,0,346)"/>
<path style="fill-rule:evenodd;fill:rgb(98.399353%,92.199707%,18.798828%);fill-opacity:1;stroke-width:20.8555;stroke-linecap:butt;stroke-linejoin:miter;stroke:rgb(13.699341%,12.199402%,12.5%);stroke-opacity:1;stroke-miterlimit:4;" d="M 4199.53125 1531.40625 L 4533.242188 1531.40625 L 4400.507813 3075.664063 L 3804.453125 3075.664063 L 3660.859375 1531.40625 L 3997.929688 1531.40625 L 4021.132813 1796.914063 L 4175.507813 1796.914063 Z M 4041.757813 2032.617188 L 4097.03125 2663.90625 L 4154.21875 2032.617188 Z M 4041.757813 2032.617188 " transform="matrix(0.1,0,0,-0.1,0,346)"/>
<path style=" stroke:none;fill-rule:evenodd;fill:rgb(98.399353%,92.199707%,18.798828%);fill-opacity:1;" d="M 549.230469 38.433594 L 500.738281 38.433594 L 472.289063 64.167969 L 463.347656 173.621094 L 480.144531 192.859375 L 522.140625 192.589844 L 545.4375 173.894531 L 555.726563 133.796875 L 516.675781 133.796875 L 511.03125 169.019531 L 499.382813 169.019531 L 514.011719 70.941406 L 526.746094 70.941406 L 522.058594 100.203125 L 564.34375 100.203125 L 571.992188 70.398438 L 571.992188 62.273438 L 549.230469 38.433594 "/>
<path style="fill:none;stroke-width:20.8555;stroke-linecap:butt;stroke-linejoin:miter;stroke:rgb(13.699341%,12.199402%,12.5%);stroke-opacity:1;stroke-miterlimit:4;" d="M 5492.304688 3075.664063 L 5007.382813 3075.664063 L 4722.890625 2818.320313 L 4633.476563 1723.789063 L 4801.445313 1531.40625 L 5221.40625 1534.101563 L 5454.375 1721.054688 L 5557.265625 2122.03125 L 5166.757813 2122.03125 L 5110.3125 1769.804688 L 4993.828125 1769.804688 L 5140.117188 2750.585938 L 5267.460938 2750.585938 L 5220.585938 2457.96875 L 5643.4375 2457.96875 L 5719.921875 2756.015625 L 5719.921875 2837.265625 Z M 5492.304688 3075.664063 " transform="matrix(0.1,0,0,-0.1,0,346)"/>
<path style=" stroke:none;fill-rule:evenodd;fill:rgb(98.399353%,92.199707%,18.798828%);fill-opacity:1;" d="M 668.9375 72.839844 L 681.171875 38.703125 L 591.496094 38.433594 L 553.027344 192.859375 L 625.902344 192.859375 L 634.648438 168.476563 L 596.914063 168.476563 L 608.0625 131.359375 L 636.742188 131.359375 L 647.578125 101.558594 L 617.011719 101.558594 L 625.632813 72.839844 L 668.9375 72.839844 "/>
<path style="fill:none;stroke-width:20.8555;stroke-linecap:butt;stroke-linejoin:miter;stroke:rgb(13.699341%,12.199402%,12.5%);stroke-opacity:1;stroke-miterlimit:4;" d="M 6689.375 2731.601563 L 6811.71875 3072.96875 L 5914.960938 3075.664063 L 5530.273438 1531.40625 L 6259.023438 1531.40625 L 6346.484375 1775.234375 L 5969.140625 1775.234375 L 6080.625 2146.40625 L 6367.421875 2146.40625 L 6475.78125 2444.414063 L 6170.117188 2444.414063 L 6256.328125 2731.601563 Z M 6689.375 2731.601563 " transform="matrix(0.1,0,0,-0.1,0,346)"/>
</g>
</svg>
